<?xml version="1.0" encoding="iso-8859-1"?>
<!-- Generator: Adobe Illustrator 19.0.0, SVG Export Plug-In . SVG Version: 6.00 Build 0)  -->
<svg version="1.1" id="Layer_1" xmlns="http://www.w3.org/2000/svg" xmlns:xlink="http://www.w3.org/1999/xlink" x="0px" y="0px"
	 viewBox="0 0 374.003 374.003" style="enable-background:new 0 0 374.003 374.003;" xml:space="preserve">
<g>
	<g>
		<path style="fill:#E6E6E6;" d="M270,122.693V48.31c0-16.463-13.346-29.809-29.809-29.809H29.809C13.346,18.502,0,31.848,0,48.31
			v74.383c0,16.463,13.346,29.809,29.809,29.809H36l-24,42l78-42h150.191C256.654,152.501,270,139.156,270,122.693z"/>
		<path style="fill:#E6E6E6;" d="M344.191,188.501H133.809c-16.463,0-29.809,13.346-29.809,29.809v74.383
			c0,16.463,13.346,29.809,29.809,29.809H284l78,42l-24-42h6.191c16.463,0,29.809-13.346,29.809-29.809V218.31
			C374,201.848,360.654,188.501,344.191,188.501z"/>
	</g>
	<path style="fill:#F9A18A;" d="M270.003,39.311v74.38c0,16.47-13.35,29.81-29.81,29.81H90.003l-78,42l24-42h-6.19
		c-16.47,0-29.81-13.34-29.81-29.81v-74.38c0-16.46,13.34-29.81,29.81-29.81h210.38C256.653,9.501,270.003,22.851,270.003,39.311z"
		/>
	<path style="fill:#AFDAF9;" d="M374.003,209.311v74.38c0,16.47-13.35,29.81-29.81,29.81h-6.19l24,42l-78-42h-150.19
		c-16.47,0-29.81-13.34-29.81-29.81v-74.38c0-16.46,13.34-29.81,29.81-29.81h210.38C360.653,179.501,374.003,192.85,374.003,209.311
		z"/>
	<path style="fill:#4D4D4D;" d="M103.003,109.001c-1.98,0-3.91-0.8-5.311-2.2c-1.39-1.39-2.189-3.32-2.189-5.3
		c0-1.97,0.8-3.91,2.189-5.3c1.4-1.4,3.33-2.2,5.311-2.2c1.97,0,3.899,0.8,5.3,2.2c1.4,1.39,2.2,3.33,2.2,5.3
		c0,1.98-0.8,3.91-2.2,5.3C106.903,108.201,104.973,109.001,103.003,109.001z"/>
	<path style="fill:#4D4D4D;" d="M135.003,109.001c-1.98,0-3.91-0.8-5.311-2.2c-1.39-1.39-2.189-3.33-2.189-5.3s0.8-3.91,2.189-5.3
		c1.4-1.4,3.33-2.2,5.311-2.2c1.97,0,3.91,0.8,5.3,2.2c1.4,1.39,2.2,3.33,2.2,5.3s-0.8,3.91-2.2,5.3
		C138.913,108.201,136.973,109.001,135.003,109.001z"/>
	<path style="fill:#4D4D4D;" d="M167.003,109.001c-1.98,0-3.91-0.8-5.311-2.2c-1.39-1.39-2.189-3.32-2.189-5.3
		c0-1.97,0.8-3.91,2.189-5.3c1.4-1.4,3.33-2.2,5.311-2.2c1.97,0,3.899,0.8,5.3,2.2c1.4,1.4,2.2,3.33,2.2,5.3s-0.8,3.91-2.2,5.3
		C170.903,108.201,168.973,109.001,167.003,109.001z"/>
	<path style="fill:#4D4D4D;" d="M207.003,283.001c-1.98,0-3.91-0.8-5.311-2.19c-1.39-1.4-2.189-3.34-2.189-5.31s0.8-3.9,2.189-5.3
		c1.4-1.4,3.33-2.2,5.311-2.2c1.97,0,3.91,0.8,5.3,2.2c1.4,1.39,2.2,3.33,2.2,5.3s-0.8,3.91-2.2,5.31
		C210.903,282.201,208.973,283.001,207.003,283.001z"/>
	<path style="fill:#4D4D4D;" d="M239.003,283.001c-1.98,0-3.91-0.8-5.311-2.2c-1.39-1.39-2.189-3.32-2.189-5.3
		c0-1.97,0.8-3.91,2.189-5.3c1.4-1.4,3.33-2.2,5.311-2.2c1.97,0,3.91,0.8,5.3,2.2c1.4,1.4,2.2,3.33,2.2,5.3s-0.8,3.91-2.2,5.3
		C242.903,282.201,240.973,283.001,239.003,283.001z"/>
	<path style="fill:#4D4D4D;" d="M271.003,283.001c-1.98,0-3.91-0.8-5.311-2.2c-1.39-1.39-2.189-3.33-2.189-5.3s0.8-3.91,2.189-5.3
		c1.4-1.4,3.33-2.2,5.311-2.2c1.97,0,3.899,0.8,5.3,2.2c1.39,1.39,2.2,3.33,2.2,5.3c0,1.98-0.811,3.91-2.2,5.3
		C274.903,282.201,272.973,283.001,271.003,283.001z"/>
	<path style="opacity:0.23;fill:#F2F2F2;enable-background:new    ;" d="M152.683,179.501l-24.79,47.64l-12.39,23.82l-11.5,22.1
		v-63.75c0-16.46,13.34-29.81,29.81-29.81H152.683z"/>
	<path style="opacity:0.23;fill:#F2F2F2;enable-background:new    ;" d="M374.003,209.311v74.38c0,16.47-13.35,29.81-29.81,29.81
		h-6.19l24,42l-78-42h-38.79l69.73-134h29.25C360.653,179.501,374.003,192.85,374.003,209.311z"/>
	<path style="opacity:0.23;fill:#F2F2F2;enable-background:new    ;" d="M47.283,9.501l-2.1,4.03l-11.83,22.74l-25.96,49.88
		l-7.39,14.21v-61.05c0-16.46,13.34-29.81,29.81-29.81C29.813,9.501,47.283,9.501,47.283,9.501z"/>
	<path style="opacity:0.23;fill:#F2F2F2;enable-background:new    ;" d="M270.003,39.311v74.38c0,16.47-13.35,29.81-29.81,29.81
		h-100.38l69.73-134h30.65C256.653,9.501,270.003,22.851,270.003,39.311z"/>
</g>
<g>
</g>
<g>
</g>
<g>
</g>
<g>
</g>
<g>
</g>
<g>
</g>
<g>
</g>
<g>
</g>
<g>
</g>
<g>
</g>
<g>
</g>
<g>
</g>
<g>
</g>
<g>
</g>
<g>
</g>
</svg>
